PathFileType	4	(X/Y/Z)	Patient4_TMGait_0pt2_02_right_03.trc.trc
DataRate	CameraRate	NumFrames	NumMarkers	Units	OrigDataRate	OrigDataStartFrame	OrigNumFrames
44.444444444444	44.444444444444	4	33	mm	44.444444444444	106	       141
Frame#	Time	R.Midfoot.Superior			Sacral			L.Shoulder			Chest			R.Shoulder			Neck			R.ASIS			L.ASIS			R.Thigh.Superior			R.Thigh.Lateral			R.Thigh.Inferior			R.Patella			L.Thigh.Superior			L.Thigh.Lateral			L.Thigh.Inferior			L.Patella			L.Shank.Superior			L.Shank.Lateral			L.Shank.Inferior			R.Shank.Superior			R.Shank.Lateral			R.Shank.Inferior			R.Heel			R.Midfoot.Lateral			R.Toe			L.Heel			L.Midfoot.Lateral			L.Midfoot.Superior			L.Toe			L.Elbow			L.Wrist			R.Elbow			R.Wrist			
		X1	Y1	Z1	X2	Y2	Z2	X3	Y3	Z3	X4	Y4	Z4	X5	Y5	Z5	X6	Y6	Z6	X7	Y7	Z7	X8	Y8	Z8	X9	Y9	Z9	X10	Y10	Z10	X11	Y11	Z11	X12	Y12	Z12	X13	Y13	Z13	X14	Y14	Z14	X15	Y15	Z15	X16	Y16	Z16	X17	Y17	Z17	X18	Y18	Z18	X19	Y19	Z19	X20	Y20	Z20	X21	Y21	Z21	X22	Y22	Z22	X23	Y23	Z23	X24	Y24	Z24	X25	Y25	Z25	X26	Y26	Z26	X27	Y27	Z27	X28	Y28	Z28	X29	Y29	Z29	X30	Y30	Z30	X31	Y31	Z31	X32	Y32	Z32	X33	Y33	Z33	

106	7.772500000000	765.931068392662	136.006860288520	573.980279608832	728.315838362641	994.698543595209	361.042085643373	943.897832537606	1427.910789226179	212.908623509668	1026.818730551852	1341.959702355343	376.929391288896	932.649918675854	1406.026856339389	548.025301886082	914.051670528137	1479.754918534835	373.242800014429	950.339829695548	927.796453909330	492.085942664825	953.524138182765	946.323593979150	218.164238028004	1010.659049760100	736.858611071495	473.857128262487	946.389366644936	628.095264352189	549.739853312509	1031.631232241914	570.707546131665	476.703952315091	1031.953454891466	461.973851339849	507.166159991479	1010.946413611179	742.980177105246	262.370758731611	937.278314971924	611.786546187301	208.664567985585	1025.704195675311	546.902691333436	282.043806041782	1030.866433513180	471.761438026760	293.728464671416	989.031338916708	397.580444516118	290.775675990813	884.570303880917	295.158906350842	243.423982055695	911.751136037629	182.195393220342	320.690176102293	951.129733423092	395.611831828426	521.907651584545	828.123855278496	368.685078230874	586.873789806911	807.716520371770	255.501781682677	548.240230324631	601.686215269664	204.899044632414	526.846050960678	655.747267839770	143.997250224936	602.999549673903	823.728550512742	30.684541444719	603.713466072877	763.488717413350	39.895319561223	367.414648218110	834.917540489782	35.789509763089	284.881161250886	920.541775607544	94.778393264515	310.122492459918	1047.009498198434	39.779713514176	276.165989553588	960.945983601280	1096.913146425598	47.690469148000	1079.846217726348	864.113441209902	38.126111306119	890.650861455150	1046.638146636799	634.013458006787	968.332396405314	799.216965836300	650.035543449573	
107	7.795000000000	772.270264637263	139.643343254308	572.257200591809	726.904670578456	995.078621043230	358.248143182379	946.512075418833	1427.821159105895	212.384155560477	1026.284069232484	1341.887237575939	377.895549975105	929.120658554099	1406.318391078407	547.291318683778	914.074922366485	1479.910179938064	372.236135119084	947.504798423256	928.650177193834	492.135801426504	953.815580234951	946.114156156157	218.103601265300	1012.354243232331	740.921721895074	472.945272188874	951.539529004682	630.551678819744	549.025260282205	1037.981950490726	575.025897390458	475.576829835556	1040.378642855943	465.494679706613	506.441853248758	1009.922888845276	742.092949388593	262.011397663572	935.390333420480	611.491605948032	208.245916944624	1023.099641192566	546.182945566129	282.113936348631	1027.855267629011	471.223579295668	294.036364634128	985.785634787565	397.156041161471	290.889035108618	881.210367009152	294.999644100540	243.211943552107	907.721120266169	182.039059595690	320.681876711767	959.074248947771	398.610766299474	520.867635532032	834.948820131284	372.361326781359	584.626783629953	814.636178566982	258.864880023729	546.432947169486	608.540420731039	209.432918378394	523.023320807722	661.481566155535	148.418521704890	600.122759547758	829.099334351922	30.974867532542	603.549752687615	758.941945600825	39.977825570826	367.258980795915	830.423444328865	35.778260343279	284.765942255009	916.089117826168	94.762779775915	310.032326009604	1042.518146661554	39.667297563441	276.124781566609	977.150992575210	1099.431466820447	44.850003060307	1111.937918087410	875.357753375433	37.064179809764	869.321349586600	1049.192222494314	630.946935017884	926.748109566990	795.416355197864	643.979090130581	
108	7.817500000000	780.967314661393	142.271685744360	570.935824582088	725.592213562303	996.183821642706	355.853842561016	949.167392538044	1428.171038076898	211.985641322171	1025.710075786270	1342.559804147263	379.095588091075	925.516895915614	1407.717737215254	546.554796660180	914.009495730016	1480.722967540956	371.187450725289	944.555389917944	930.115455371908	492.743527517158	954.147480363613	946.434884233480	218.658809051820	1013.258669487298	745.386508827617	472.682904589932	955.421570517471	633.562228280083	548.828414205911	1042.890632058170	579.742991772604	475.128622062834	1047.358107781623	469.758069568671	506.242898302146	1008.394269975632	741.410557410725	262.108213860451	932.633713606969	611.694906677438	208.127905091450	1019.396382875582	545.706495648558	282.409754084399	1023.565724435454	471.048878027210	294.515331327027	981.497050250307	397.175366955622	291.092860353610	877.083953090737	295.040863013568	243.073853559373	903.326814347017	182.107748619457	320.677887729365	966.224523918807	401.975443970655	520.347028520619	841.478586163707	375.066141201881	583.008952482007	822.412458806773	261.196966119334	545.103230802041	616.922619930604	210.089878443763	520.016081309246	669.784981802550	149.997665654860	597.911616239628	838.531295751683	31.749820503235	603.543135391601	754.362066869331	40.044283231804	367.105185503401	825.904985032953	35.763361438260	284.649355735630	911.602375217758	94.772188351511	309.913066043689	1037.999942787569	39.595733913506	276.084230950951	992.998945782252	1102.791629320500	42.866254053943	1143.401142725045	888.671757395086	37.449537386627	848.449464514367	1053.863220606862	628.176530599320	887.455178392663	795.869274461178	637.552909822475	
109	7.840000000000	792.349318559772	143.613877044686	570.245292936429	724.386368324896	997.947866501860	353.813894051904	951.855373703589	1428.917800742099	211.731493467458	1025.100936996246	1343.912938912973	380.524544112437	921.874203055625	1410.126952406775	545.824715554644	913.855459487364	1482.121585911070	370.125838127222	941.493245670059	932.132547301403	493.881982629030	954.540903827088	947.233664797249	219.811069027986	1013.266721547813	750.021163411537	473.089219754387	957.785346755372	636.950122738148	549.146463434985	1046.088019421934	584.607108609075	475.385480078201	1052.608548992685	474.602058693951	506.594198325610	1006.384782870072	740.918483875630	262.697253619506	929.116459202828	612.352657852218	208.305243252403	1014.694368234701	545.458412634823	282.946751805315	1018.105791855791	471.204432247256	295.168884825653	976.255789560619	397.598026388925	291.388677536585	872.252253928229	295.266049482749	243.017206124537	898.594239428200	182.375848238951	320.689716053784	972.435206970874	405.531325128533	520.416037950608	847.775337822149	376.485224982782	582.235253370168	831.212834926041	262.245681506709	544.452771974518	627.206231958971	206.448986655844	518.215180361887	681.097186570764	148.362416501630	596.673388849355	852.439913939969	33.021190407813	603.794886698575	749.752274205192	40.087460748219	366.961424426839	821.362761829817	35.744030465204	284.536395960191	907.083061931469	94.802335012012	309.776614029113	1033.457991323485	39.558704168505	276.047384723710	1008.443594998603	1106.869685941543	41.785685151414	1173.870778141428	903.844139916349	39.275301842744	828.334688072756	1060.418764509596	625.674803840125	851.076015169543	799.935909974503	631.035534163502	
